<svg xmlns="http://www.w3.org/2000/svg" viewBox="0 0 1200 680" role="img" aria-labelledby="title desc">
  <title id="title">CMS editor dashboard mockup</title>
  <desc id="desc">A mock content editor interface with article list and preview panel.</desc>
  <rect width="1200" height="680" fill="#f4f6f3"/>
  <rect x="20" y="20" width="1160" height="640" rx="18" fill="#ffffff" stroke="#cbd8dd"/>
  <rect x="50" y="60" width="250" height="560" rx="12" fill="#eef5f7"/>
  <rect x="330" y="60" width="820" height="80" rx="10" fill="#e3f2f7"/>
  <rect x="330" y="160" width="390" height="460" rx="12" fill="#f8fbfc" stroke="#cbd8dd"/>
  <rect x="760" y="160" width="390" height="460" rx="12" fill="#f8fbfc" stroke="#cbd8dd"/>
  <g fill="#12718f">
    <rect x="80" y="100" width="190" height="18" rx="8"/>
    <rect x="80" y="140" width="150" height="14" rx="7"/>
    <rect x="80" y="176" width="170" height="14" rx="7"/>
  </g>
  <g fill="#4f6572">
    <rect x="360" y="190" width="330" height="16" rx="8"/>
    <rect x="360" y="225" width="280" height="12" rx="6"/>
    <rect x="360" y="255" width="300" height="12" rx="6"/>
    <rect x="790" y="190" width="320" height="16" rx="8"/>
    <rect x="790" y="225" width="250" height="12" rx="6"/>
  </g>
</svg>
